<svg width="24" height="24" viewBox="0 0 24 24" fill="none" xmlns="http://www.w3.org/2000/svg">
<path d="M24 0H0V24H24V0Z" fill="white"/>
<path d="M19.07 4.93C17.18 3.04 14.67 2 12 2C9.33 2 6.82 3.04 4.93 4.93C3.04 6.82 2 9.33 2 12C2 14.67 3.04 17.18 4.93 19.07C6.82 20.96 9.33 22 12 22C14.67 22 17.18 20.96 19.07 19.07C20.96 17.18 22 14.67 22 12C22 9.33 20.96 6.82 19.07 4.93ZM19.85 8.08H16.07C15.95 7.33 15.78 6.62 15.59 5.95C15.32 5.04 15 4.26 14.63 3.62C16.91 4.34 18.79 5.97 19.85 8.07V8.08ZM20.78 12C20.78 12.94 20.63 13.85 20.35 14.7H16.24C16.33 13.83 16.38 12.92 16.38 12C16.38 11.08 16.33 10.17 16.24 9.3H20.35C20.63 10.15 20.78 11.06 20.78 12ZM3.22 12C3.22 11.06 3.37 10.15 3.65 9.3H7.76C7.67 10.17 7.62 11.08 7.62 12C7.62 12.92 7.67 13.83 7.76 14.7H3.65C3.37 13.85 3.22 12.94 3.22 12ZM8.84 12C8.84 11.07 8.89 10.16 8.99 9.3H15.02C15.12 10.17 15.17 11.07 15.17 12C15.17 12.93 15.12 13.84 15.02 14.7H8.99C8.89 13.83 8.84 12.93 8.84 12ZM12.82 3.26C13.22 3.62 13.87 4.45 14.42 6.3C14.58 6.86 14.72 7.46 14.83 8.08H9.16C9.27 7.45 9.41 6.86 9.57 6.3C10.12 4.45 10.77 3.62 11.17 3.26C11.44 3.23 11.72 3.22 11.99 3.22C12.26 3.22 12.54 3.23 12.81 3.26H12.82ZM9.37 3.62C9 4.26 8.68 5.04 8.41 5.95C8.21 6.62 8.05 7.33 7.93 8.08H4.15C5.21 5.97 7.09 4.35 9.37 3.63V3.62ZM4.15 15.92H7.93C8.05 16.67 8.22 17.38 8.41 18.05C8.68 18.96 9 19.74 9.37 20.38C7.09 19.66 5.21 18.03 4.15 15.93V15.92ZM11.18 20.74C10.78 20.38 10.13 19.55 9.58 17.7C9.42 17.14 9.28 16.54 9.17 15.92H14.84C14.73 16.55 14.59 17.14 14.43 17.7C13.88 19.55 13.23 20.38 12.83 20.74C12.56 20.77 12.28 20.78 12.01 20.78C11.74 20.78 11.46 20.77 11.19 20.74H11.18ZM14.63 20.38C15 19.74 15.32 18.96 15.59 18.05C15.79 17.38 15.95 16.67 16.07 15.92H19.85C18.79 18.03 16.91 19.65 14.63 20.37V20.38Z" fill="black"/>
</svg>
